<svg width="50" height="50" viewBox="0 0 50 50" fill="none" xmlns="http://www.w3.org/2000/svg">
<path d="M37.5 16.6666C40.9518 16.6666 43.75 13.8684 43.75 10.4166C43.75 6.96485 40.9518 4.16663 37.5 4.16663C34.0482 4.16663 31.25 6.96485 31.25 10.4166C31.25 13.8684 34.0482 16.6666 37.5 16.6666Z" fill="white" fill-opacity="0.2" stroke="white" stroke-width="2" stroke-linecap="round" stroke-linejoin="round"/>
<path d="M12.5 31.25C15.9518 31.25 18.75 28.4518 18.75 25C18.75 21.5482 15.9518 18.75 12.5 18.75C9.04822 18.75 6.25 21.5482 6.25 25C6.25 28.4518 9.04822 31.25 12.5 31.25Z" fill="white" fill-opacity="0.2" stroke="white" stroke-width="2" stroke-linecap="round" stroke-linejoin="round"/>
<path d="M37.5 45.8334C40.9518 45.8334 43.75 43.0352 43.75 39.5834C43.75 36.1316 40.9518 33.3334 37.5 33.3334C34.0482 33.3334 31.25 36.1316 31.25 39.5834C31.25 43.0352 34.0482 45.8334 37.5 45.8334Z" fill="white" fill-opacity="0.2" stroke="white" stroke-width="2" stroke-linecap="round" stroke-linejoin="round"/>
<path d="M17.8955 28.1459L32.1247 36.4375" stroke="white" stroke-width="2" stroke-linecap="round" stroke-linejoin="round"/>
<path d="M32.1038 13.5625L17.8955 21.8542" stroke="white" stroke-width="2" stroke-linecap="round" stroke-linejoin="round"/>
</svg>
