<svg width="50" height="50" viewBox="0 0 50 50" fill="none" xmlns="http://www.w3.org/2000/svg">
<path d="M43.4168 9.60419C42.3527 8.53961 41.0893 7.69512 39.6987 7.11894C38.3082 6.54277 36.8178 6.24622 35.3126 6.24622C33.8074 6.24622 32.317 6.54277 30.9264 7.11894C29.5359 7.69512 28.2725 8.53961 27.2084 9.60419L25.0001 11.8125L22.7918 9.60419C20.6424 7.45483 17.7272 6.24733 14.6876 6.24733C11.6479 6.24733 8.73278 7.45483 6.58342 9.60419C4.43406 11.7535 3.22656 14.6687 3.22656 17.7084C3.22656 20.748 4.43406 23.6632 6.58342 25.8125L8.79175 28.0209L25.0001 44.2292L41.2084 28.0209L43.4168 25.8125C44.4813 24.7484 45.3258 23.485 45.902 22.0945C46.4782 20.704 46.7747 19.2135 46.7747 17.7084C46.7747 16.2032 46.4782 14.7127 45.902 13.3222C45.3258 11.9317 44.4813 10.6683 43.4168 9.60419Z" fill="white" fill-opacity="0.2" stroke="white" stroke-width="2" stroke-linecap="round" stroke-linejoin="round"/>
</svg>
