<svg width="1646" height="1686" viewBox="0 0 1646 1686" fill="none" xmlns="http://www.w3.org/2000/svg">
<g filter="url(#filter0_f_224_11374)">
<path d="M1506.36 1003.32C1506.36 1022.1 1521.58 1037.32 1540.36 1037.32C1559.14 1037.32 1574.36 1022.1 1574.36 1003.32C1574.36 984.547 1559.14 969.324 1540.36 969.324C1521.58 969.324 1506.36 984.547 1506.36 1003.32Z" fill="#EEEEEE" fill-opacity="0.25"/>
<path d="M1546.36 963.324C1546.36 982.102 1561.58 997.324 1580.36 997.324C1599.14 997.324 1614.36 982.102 1614.36 963.324C1614.36 944.547 1599.14 929.324 1580.36 929.324C1561.58 929.324 1546.36 944.547 1546.36 963.324Z" fill="#EEEEEE" fill-opacity="0.25"/>
<path d="M1561.36 909.324C1561.36 928.102 1576.58 943.324 1595.36 943.324C1614.14 943.324 1629.36 928.102 1629.36 909.324C1629.36 890.547 1614.14 875.324 1595.36 875.324C1576.58 875.324 1561.36 890.547 1561.36 909.324Z" fill="#EEEEEE" fill-opacity="0.25"/>
<path d="M1546.36 855.324C1546.36 874.102 1561.58 889.324 1580.36 889.324C1599.14 889.324 1614.36 874.102 1614.36 855.324C1614.36 836.547 1599.14 821.324 1580.36 821.324C1561.58 821.324 1546.36 836.547 1546.36 855.324Z" fill="#EEEEEE" fill-opacity="0.25"/>
</g>
<path d="M1499.36 1003.32C1499.36 1022.1 1514.58 1037.32 1533.36 1037.32C1552.14 1037.32 1567.36 1022.1 1567.36 1003.32C1567.36 984.547 1552.14 969.324 1533.36 969.324C1514.58 969.324 1499.36 984.547 1499.36 1003.32Z" fill="#333333"/>
<path d="M1539.36 963.324C1539.36 982.102 1554.58 997.324 1573.36 997.324C1592.14 997.324 1607.36 982.102 1607.36 963.324C1607.36 944.547 1592.14 929.324 1573.36 929.324C1554.58 929.324 1539.36 944.547 1539.36 963.324Z" fill="#333333"/>
<path d="M1554.36 909.324C1554.36 928.102 1569.58 943.324 1588.36 943.324C1607.14 943.324 1622.36 928.102 1622.36 909.324C1622.36 890.547 1607.14 875.324 1588.36 875.324C1569.58 875.324 1554.36 890.547 1554.36 909.324Z" fill="#333333"/>
<path d="M1539.36 855.324C1539.36 874.102 1554.58 889.324 1573.36 889.324C1592.14 889.324 1607.36 874.102 1607.36 855.324C1607.36 836.547 1592.14 821.324 1573.36 821.324C1554.58 821.324 1539.36 836.547 1539.36 855.324Z" fill="#333333"/>
<path d="M1613.03 926.621L1548.86 855.324L1585.36 825.824L1527 800L1373 871.958L1507.03 1021.58L1613.03 926.621Z" fill="#333333"/>
<path d="M1023 542.5L1581 822.5L1541 1036.5L1023 1193.5V542.5Z" fill="#333333"/>
<path d="M0 0L1023 542V1193L0 1685.5V0Z" fill="#333333"/>
<defs>
<filter id="filter0_f_224_11374" x="1490.36" y="805.324" width="155" height="248" filterUnits="userSpaceOnUse" color-interpolation-filters="sRGB">
<feFlood flood-opacity="0" result="BackgroundImageFix"/>
<feBlend mode="normal" in="SourceGraphic" in2="BackgroundImageFix" result="shape"/>
<feGaussianBlur stdDeviation="8" result="effect1_foregroundBlur_224_11374"/>
</filter>
</defs>
</svg>
