<svg width="1302" height="1726" viewBox="0 0 1302 1726" fill="none" xmlns="http://www.w3.org/2000/svg">
<g filter="url(#filter0_d_223_11367)">
<path d="M1165.36 985.324C1165.36 1004.1 1180.58 1019.32 1199.36 1019.32C1218.14 1019.32 1233.36 1004.1 1233.36 985.324C1233.36 966.547 1218.14 951.324 1199.36 951.324C1180.58 951.324 1165.36 966.547 1165.36 985.324Z" fill="black"/>
<path d="M1205.36 945.324C1205.36 964.102 1220.58 979.324 1239.36 979.324C1258.14 979.324 1273.36 964.102 1273.36 945.324C1273.36 926.547 1258.14 911.324 1239.36 911.324C1220.58 911.324 1205.36 926.547 1205.36 945.324Z" fill="black"/>
<path d="M1220.36 891.324C1220.36 910.102 1235.58 925.324 1254.36 925.324C1273.14 925.324 1288.36 910.102 1288.36 891.324C1288.36 872.547 1273.14 857.324 1254.36 857.324C1235.58 857.324 1220.36 872.547 1220.36 891.324Z" fill="black"/>
<path d="M1205.36 837.324C1205.36 856.102 1220.58 871.324 1239.36 871.324C1258.14 871.324 1273.36 856.102 1273.36 837.324C1273.36 818.547 1258.14 803.324 1239.36 803.324C1220.58 803.324 1205.36 818.547 1205.36 837.324Z" fill="black"/>
<path d="M1279.03 908.621L1214.86 837.324L1251.36 807.824L1194.36 759L1039 853.958L1173.03 1003.58L1279.03 908.621Z" fill="black"/>
</g>
<path d="M0.5 0L1194.5 759L1188 1017L0.5 1726L0.5 0Z" fill="black"/>
<defs>
<filter id="filter0_d_223_11367" x="1039" y="753" width="262.359" height="272.324" filterUnits="userSpaceOnUse" color-interpolation-filters="sRGB">
<feFlood flood-opacity="0" result="BackgroundImageFix"/>
<feColorMatrix in="SourceAlpha" type="matrix" values="0 0 0 0 0 0 0 0 0 0 0 0 0 0 0 0 0 0 127 0" result="hardAlpha"/>
<feOffset dx="7"/>
<feGaussianBlur stdDeviation="3"/>
<feComposite in2="hardAlpha" operator="out"/>
<feColorMatrix type="matrix" values="0 0 0 0 0 0 0 0 0 0 0 0 0 0 0 0 0 0 0.25 0"/>
<feBlend mode="normal" in2="BackgroundImageFix" result="effect1_dropShadow_223_11367"/>
<feBlend mode="normal" in="SourceGraphic" in2="effect1_dropShadow_223_11367" result="shape"/>
</filter>
</defs>
</svg>
