<svg width="1623" height="1686" viewBox="0 0 1623 1686" fill="none" xmlns="http://www.w3.org/2000/svg">
<path d="M1499.36 1003.32C1499.36 1022.1 1514.58 1037.32 1533.36 1037.32C1552.14 1037.32 1567.36 1022.1 1567.36 1003.32C1567.36 984.547 1552.14 969.324 1533.36 969.324C1514.58 969.324 1499.36 984.547 1499.36 1003.32Z" fill="black"/>
<path d="M1539.36 963.324C1539.36 982.102 1554.58 997.324 1573.36 997.324C1592.14 997.324 1607.36 982.102 1607.36 963.324C1607.36 944.547 1592.14 929.324 1573.36 929.324C1554.58 929.324 1539.36 944.547 1539.36 963.324Z" fill="black"/>
<path d="M1554.36 909.324C1554.36 928.102 1569.58 943.324 1588.36 943.324C1607.14 943.324 1622.36 928.102 1622.36 909.324C1622.36 890.547 1607.14 875.324 1588.36 875.324C1569.58 875.324 1554.36 890.547 1554.36 909.324Z" fill="black"/>
<path d="M1539.36 855.324C1539.36 874.102 1554.58 889.324 1573.36 889.324C1592.14 889.324 1607.36 874.102 1607.36 855.324C1607.36 836.547 1592.14 821.324 1573.36 821.324C1554.58 821.324 1539.36 836.547 1539.36 855.324Z" fill="black"/>
<path d="M1613.03 926.621L1548.86 855.324L1585.36 825.824L1527 800L1373 871.958L1507.03 1021.58L1613.03 926.621Z" fill="black"/>
<path d="M1023 542.5L1581 822.5L1541 1036.5L1023 1193.5V542.5Z" fill="black"/>
<path d="M0 0L1023 542V1193L0 1685.5V0Z" fill="black"/>
</svg>
