<svg width="250" height="261" viewBox="0 0 250 261" fill="none" xmlns="http://www.w3.org/2000/svg">
<path d="M123 227C123 245.778 107.778 261 89 261C70.2223 261 55 245.778 55 227C55 208.222 70.2223 193 89 193C107.778 193 123 208.222 123 227Z" fill="#EEEEEE"/>
<path d="M83 187C83 205.778 67.7777 221 49 221C30.2223 221 15 205.778 15 187C15 168.222 30.2223 153 49 153C67.7777 153 83 168.222 83 187Z" fill="#EEEEEE"/>
<path d="M68 133C68 151.778 52.7777 167 34 167C15.2223 167 0 151.778 0 133C0 114.222 15.2223 99 34 99C52.7777 99 68 114.222 68 133Z" fill="#EEEEEE"/>
<path d="M83 79C83 97.7777 67.7777 113 49 113C30.2223 113 15 97.7777 15 79C15 60.2223 30.2223 45 49 45C67.7777 45 83 60.2223 83 79Z" fill="#EEEEEE"/>
<path d="M9.3258 150.297L73.4994 78.9998L36.9997 49.4998L94 0.675598L249.36 95.6337L115.333 245.255L9.3258 150.297Z" fill="#EEEEEE"/>
</svg>
